<mxfile host="app.diagrams.net" modified="2022-09-23T07:46:26.306Z" agent="5.0 (Windows)" etag="ieySL-pTiiJpPLVIbVNj" version="20.2.5" type="github">
  <diagram id="jKLpedxOHFE1lHcojtC0" name="Seite-1">
    <mxGraphModel dx="1422" dy="752" grid="1" gridSize="10" guides="1" tooltips="1" connect="1" arrows="1" fold="1" page="1" pageScale="1" pageWidth="827" pageHeight="1169" math="0" shadow="0">
      <root>
        <mxCell id="0" />
        <mxCell id="1" parent="0" />
        <mxCell id="jD4Smft2H9kW2Vvw2FEG-1" value="&lt;div&gt;Fritz.Box&lt;/div&gt;&lt;div&gt;192.168.178.1/24&lt;/div&gt;&lt;div&gt;&lt;br&gt;&lt;/div&gt;&lt;div&gt;route&lt;/div&gt;&lt;div&gt;192.168.2.0/24 gw 192.168.178.250&lt;br&gt;&lt;/div&gt;" style="rounded=1;whiteSpace=wrap;html=1;fillColor=#ffe6cc;strokeColor=#d79b00;" vertex="1" parent="1">
          <mxGeometry x="48" y="450" width="135" height="100" as="geometry" />
        </mxCell>
        <mxCell id="jD4Smft2H9kW2Vvw2FEG-3" style="edgeStyle=orthogonalEdgeStyle;rounded=0;orthogonalLoop=1;jettySize=auto;html=1;entryX=0.5;entryY=0;entryDx=0;entryDy=0;endArrow=none;endFill=0;strokeWidth=5;fillColor=#f8cecc;strokeColor=#b85450;" edge="1" parent="1" source="jD4Smft2H9kW2Vvw2FEG-2" target="jD4Smft2H9kW2Vvw2FEG-1">
          <mxGeometry relative="1" as="geometry" />
        </mxCell>
        <mxCell id="jD4Smft2H9kW2Vvw2FEG-2" value="Internet" style="ellipse;shape=cloud;whiteSpace=wrap;html=1;fillColor=#f8cecc;strokeColor=#b85450;" vertex="1" parent="1">
          <mxGeometry x="55.5" y="303" width="120" height="80" as="geometry" />
        </mxCell>
        <mxCell id="jD4Smft2H9kW2Vvw2FEG-4" value="&lt;div&gt;OpenWRT&lt;/div&gt;&lt;div&gt;PI 4&lt;/div&gt;" style="rounded=0;whiteSpace=wrap;html=1;verticalAlign=top;" vertex="1" parent="1">
          <mxGeometry x="341" y="440" width="143" height="120" as="geometry" />
        </mxCell>
        <mxCell id="jD4Smft2H9kW2Vvw2FEG-8" value="WiFi" style="endArrow=none;dashed=1;html=1;rounded=0;strokeWidth=5;entryX=0;entryY=0.5;entryDx=0;entryDy=0;exitX=1;exitY=0.5;exitDx=0;exitDy=0;fillColor=#dae8fc;strokeColor=#6c8ebf;" edge="1" parent="1" source="jD4Smft2H9kW2Vvw2FEG-1" target="jD4Smft2H9kW2Vvw2FEG-7">
          <mxGeometry width="50" height="50" relative="1" as="geometry">
            <mxPoint x="228" y="500" as="sourcePoint" />
            <mxPoint x="476" y="500" as="targetPoint" />
          </mxGeometry>
        </mxCell>
        <mxCell id="jD4Smft2H9kW2Vvw2FEG-14" value="NAT" style="edgeStyle=orthogonalEdgeStyle;rounded=0;orthogonalLoop=1;jettySize=auto;html=1;exitX=1;exitY=0.25;exitDx=0;exitDy=0;entryX=0;entryY=0.5;entryDx=0;entryDy=0;endArrow=none;endFill=0;strokeWidth=5;" edge="1" parent="1" source="jD4Smft2H9kW2Vvw2FEG-7" target="jD4Smft2H9kW2Vvw2FEG-9">
          <mxGeometry relative="1" as="geometry" />
        </mxCell>
        <mxCell id="jD4Smft2H9kW2Vvw2FEG-15" value="Routing" style="edgeStyle=orthogonalEdgeStyle;rounded=0;orthogonalLoop=1;jettySize=auto;html=1;exitX=1;exitY=0.75;exitDx=0;exitDy=0;entryX=0;entryY=0.25;entryDx=0;entryDy=0;endArrow=none;endFill=0;strokeWidth=5;" edge="1" parent="1" source="jD4Smft2H9kW2Vvw2FEG-7" target="jD4Smft2H9kW2Vvw2FEG-11">
          <mxGeometry relative="1" as="geometry" />
        </mxCell>
        <mxCell id="jD4Smft2H9kW2Vvw2FEG-7" value="192.168.178.250/24" style="text;html=1;align=center;verticalAlign=middle;whiteSpace=wrap;rounded=0;fillColor=default;strokeColor=default;" vertex="1" parent="1">
          <mxGeometry x="253" y="485" width="116" height="30" as="geometry" />
        </mxCell>
        <mxCell id="jD4Smft2H9kW2Vvw2FEG-9" value="192.168.1.1/24" style="text;html=1;align=center;verticalAlign=middle;whiteSpace=wrap;rounded=0;fillColor=default;strokeColor=default;" vertex="1" parent="1">
          <mxGeometry x="464" y="470" width="116" height="30" as="geometry" />
        </mxCell>
        <mxCell id="jD4Smft2H9kW2Vvw2FEG-11" value="192.168.2.1/24" style="text;html=1;align=center;verticalAlign=middle;whiteSpace=wrap;rounded=0;fillColor=default;strokeColor=default;" vertex="1" parent="1">
          <mxGeometry x="464" y="510" width="116" height="30" as="geometry" />
        </mxCell>
        <mxCell id="jD4Smft2H9kW2Vvw2FEG-17" value="LAN" style="edgeStyle=orthogonalEdgeStyle;rounded=0;orthogonalLoop=1;jettySize=auto;html=1;entryX=1;entryY=0.75;entryDx=0;entryDy=0;endArrow=none;endFill=0;strokeWidth=5;fillColor=#dae8fc;strokeColor=#6c8ebf;" edge="1" parent="1" source="jD4Smft2H9kW2Vvw2FEG-16" target="jD4Smft2H9kW2Vvw2FEG-1">
          <mxGeometry relative="1" as="geometry" />
        </mxCell>
        <mxCell id="jD4Smft2H9kW2Vvw2FEG-16" value="&lt;div&gt;PC01&lt;/div&gt;&lt;div&gt;192.168.178.43/24&lt;br&gt;&lt;/div&gt;" style="rounded=0;whiteSpace=wrap;html=1;strokeColor=default;fillColor=default;" vertex="1" parent="1">
          <mxGeometry x="148" y="610" width="120" height="60" as="geometry" />
        </mxCell>
        <mxCell id="jD4Smft2H9kW2Vvw2FEG-19" value="LAN" style="edgeStyle=orthogonalEdgeStyle;rounded=0;orthogonalLoop=1;jettySize=auto;html=1;exitX=0.5;exitY=0;exitDx=0;exitDy=0;entryX=1;entryY=0.5;entryDx=0;entryDy=0;endArrow=none;endFill=0;strokeWidth=5;fillColor=#d5e8d4;strokeColor=#82b366;" edge="1" parent="1" source="jD4Smft2H9kW2Vvw2FEG-18" target="jD4Smft2H9kW2Vvw2FEG-11">
          <mxGeometry relative="1" as="geometry" />
        </mxCell>
        <mxCell id="jD4Smft2H9kW2Vvw2FEG-18" value="&lt;div&gt;Web-Server A&lt;/div&gt;&lt;div&gt;192.168.2.2&lt;br&gt;&lt;/div&gt;" style="rounded=0;whiteSpace=wrap;html=1;strokeColor=default;fillColor=default;" vertex="1" parent="1">
          <mxGeometry x="544" y="610" width="120" height="60" as="geometry" />
        </mxCell>
        <mxCell id="jD4Smft2H9kW2Vvw2FEG-21" value="LAN" style="edgeStyle=orthogonalEdgeStyle;rounded=0;orthogonalLoop=1;jettySize=auto;html=1;entryX=1;entryY=0.5;entryDx=0;entryDy=0;endArrow=none;endFill=0;strokeWidth=5;exitX=0.5;exitY=0;exitDx=0;exitDy=0;fillColor=#d5e8d4;strokeColor=#82b366;" edge="1" parent="1" source="jD4Smft2H9kW2Vvw2FEG-20" target="jD4Smft2H9kW2Vvw2FEG-9">
          <mxGeometry relative="1" as="geometry" />
        </mxCell>
        <mxCell id="jD4Smft2H9kW2Vvw2FEG-20" value="&lt;div&gt;CloudStack&lt;/div&gt;&lt;div&gt;Mgmt&lt;/div&gt;&lt;div&gt;192.168.1.2/24&lt;br&gt;&lt;/div&gt;" style="rounded=0;whiteSpace=wrap;html=1;strokeColor=default;fillColor=default;" vertex="1" parent="1">
          <mxGeometry x="679" y="610" width="120" height="60" as="geometry" />
        </mxCell>
        <mxCell id="jD4Smft2H9kW2Vvw2FEG-22" value="&lt;h1&gt;Network Setup for my Homelab&lt;br&gt;&lt;/h1&gt;&lt;p&gt;PC01 should be able ot access the CloudStack Mgmt Server through Port-forwarding:&lt;br&gt;- http://192.168.178.250:8080 -&amp;gt; http://192.168.1.2:8080&lt;/p&gt;&lt;p&gt;CloudStack Mgmt need Internet access to download resources.&lt;/p&gt;&lt;p&gt;Web-Server A need Internet access to download resources.&lt;/p&gt;&lt;p&gt;PC01 need access to Web-Server A with direct access: https://192.168.2.2:443/&lt;br&gt;&lt;/p&gt;&lt;p&gt;&lt;br&gt;&lt;/p&gt;" style="text;html=1;spacing=5;spacingTop=-20;whiteSpace=wrap;overflow=hidden;rounded=0;fillColor=default;strokeColor=default;" vertex="1" parent="1">
          <mxGeometry x="40" y="10" width="760" height="220" as="geometry" />
        </mxCell>
      </root>
    </mxGraphModel>
  </diagram>
</mxfile>
